<?xml version="1.0" encoding="utf-8"?>
<!-- Generator: Adobe Illustrator 18.1.1, SVG Export Plug-In . SVG Version: 6.00 Build 0)  -->
<svg version="1.1" id="Layer_1" xmlns="http://www.w3.org/2000/svg" xmlns:xlink="http://www.w3.org/1999/xlink" x="0px" y="0px"
	 viewBox="41.5 -0.2 528.9 792.5" enable-background="new 41.5 -0.2 528.9 792.5" xml:space="preserve">
<g>
	<path fill="orange" d="M409.5,253.9c17.3,18.7,18.7,75.7,61.3,52.6c25.2-13.7,25.2-70.6-8.6-90.8c-27.4-16.6-42.5,5.8-52.6,32.4
		C408.7,250.3,408,252.5,409.5,253.9L409.5,253.9z"/>
	<path fill="tomato" d="M343.2,244.5c-18,14.4-29.5,54.8-62.7,41.8c-26.7-13.7-28.8-65.6,16.6-90.1c31.7-14.4,47.6,14.4,48.3,44.7
		C345.3,242.4,344.6,243.8,343.2,244.5L343.2,244.5z"/>
	<path fill="#E238F4" d="M387.1,347.6c17.3-1.4,13.7-18,0-22.3c-12.3-3.6-29.5-5.8-42.5-5.8c-22.3,0.7-22.3,18-10.1,20.9
		c8.6,2.9,14.4,4.3,22.3,14.4C364.1,368.5,360.5,350.5,387.1,347.6L387.1,347.6z"/>
	<path fill="#E238F4" d="M470,56.4c22.3-36.8,60.5-29.5,80-11.5c20.9,20.2,24.5,43.2,16.6,59.1c-10.8,21.6-38.9,48.3-57.7,22.3
		c-7.9-11.5-25.2-24.5-34.6-28.8C459.9,91.8,457,78.8,470,56.4L470,56.4z"/>
	<path fill="#E238F4" d="M557.9,218.6c-2.2-6.5-5-6.5-5-0.7c2.2,67-38.2,138.4-124,139.1c-21.6,0-15.1,35.3-55.5,17.3
		c-28.8-19.5-45.4,18.7-65.6-22.3c-4.3-11.5-11.5-16.6-20.2-18.7c-84.3-20.9-111.7-137.6-36.8-231.3c14.4,8.6,20.2,10.1,36-4.3
		c7.9-7.2,21.6-15.9,29.5-18.7c18-6.5,27.4-14.4,12.3-48.3c-20.2-44.7-60.5-31.7-79.3-16.6c-20.9,17.3-36,45.4-8.6,77.8
		c-75.7,51.2-88.6,113.9-87.2,168.6c1.4,57.7-13,53.3,5.8,111.7c1.4,5-2.2,5-5,3.6C75.8,325.3,32.6,171,155.8,86
		c2.9-2.2,1.4-5.8-8.6,0c-106.7,56.2-116,165-98.7,238.5c8.6,35.3-4.3,42.5,9.4,88.6c31.7,97.3,58.4,105.2,96.6,108.1
		c69.2,0,22.3-38.2,25.2-86.5c0-2.9,3.6-4.3,5,1.4c38.2,85.8,64.9,163.6,165.8,156.4c58.4-7.9,25.9-36.8,22.3-52.6
		c-42.5-142,61.3-175.1,31.7-36.8c-19.5,79.3,41.8,71.3,85,42.5C534.9,517.7,590.4,324.5,557.9,218.6L557.9,218.6z M388.6,386.5
		c-9.4,25.2-59.8,16.6-61.3-7.9c0-0.7,1.4-0.7,2.2-0.7c22.3,5,43.2,7.9,57.7,7.2C387.8,385.1,389.3,385.1,388.6,386.5L388.6,386.5z"
		/>
	<path fill="#E238F4" d="M226.4,646.7c-5,0-8.6,2.9-10.8,7.2l-20.9,54l-2.2,6.5l-1.4-6.5l-16.6-52.6v-0.7l0,0
		c-1.4-4.3-5.8-7.2-10.8-7.2h-26.7l0,0c-5.8,0-10.8,5-10.8,11.5c0,1.4,0.7,3.6,1.4,5.8l3.6,10.8l-13,33.2l-2.2,5.8l-1.4-6.5
		l-16.6-52.6v-0.7l0,0c-1.4-4.3-5.8-7.2-10.8-7.2H60.7l0,0c-5.8,0-10.8,5-10.8,11.5c0,1.4,0.7,3.6,1.4,5.8l39.6,118.9
		c1.4,5,5.8,8.6,10.8,8.6c5,0,9.4-3.6,10.8-7.9l28.1-70.6l2.2-6.5l1.4,6.5l23.8,69.9c1.4,5,5.8,8.6,10.8,8.6c5,0,9.4-3.6,10.8-7.9
		L237.2,664c0.7-1.4,1.4-2.9,1.4-5C237.2,651.7,232.2,646.7,226.4,646.7L226.4,646.7z"/>
	<path fill="#E238F4" d="M424.6,646.7c-5,0-8.6,2.9-10.8,7.2l-20.9,54l-2.2,6.5l-1.4-6.5l-16.6-52.6v-0.7l0,0
		c-1.4-4.3-5.8-7.2-10.8-7.2h-26.7l0,0c-5.8,0-10.8,5-10.8,11.5c0,1.4,0.7,3.6,1.4,5.8l3.6,10.8l-13,32.4l-2.2,5.8l-1.4-6.5
		l-16.6-52.6v-0.7l0,0c-1.4-4.3-5.8-7.2-10.8-7.2h-26.7l0,0c-5.8,0-10.8,5-10.8,11.5c0,1.4,0.7,3.6,1.4,5.8l39.6,118.9
		c1.4,5,5.8,8.6,10.8,8.6c5,0,9.4-3.6,10.8-7.9l28.1-70.6l2.2-6.5l1.4,6.5l23.8,69.9c1.4,5,5.8,8.6,10.8,8.6s9.4-3.6,10.8-7.9
		l47.6-120.3c0.7-1.4,0.7-2.9,0.7-5C436.1,651.7,431.1,646.7,424.6,646.7L424.6,646.7z"/>
	<path fill="#E238F4" d="M553.6,647.4h-93c-5,0-9.4,4.3-9.4,9.4l0,0l0,0c0,0,0,9.4,0,23.8c0,33.9,0,100.2,0,100.2l0,0l0,0
		c0,5.8,5,10.1,10.8,10.1c16.6,0,26.7,0,26.7,0c5.8,0,10.1-4.3,10.1-10.1c0,0.7,0-57.7,0-57.7s37.5,0,38.2,0
		c5.8,0,10.1-4.3,10.1-10.1s-4.3-10.1-10.1-10.1h-37.5v-33.2h56.2c5.8,0,10.8-5,10.8-10.8C564.4,651.7,560.1,647.4,553.6,647.4
		L553.6,647.4z"/>
	<path fill="#E238F4" d="M165.9,558c0,10.1-8.6,18.7-18.7,18.7s-18.7-8.6-18.7-18.7s8.6-18.7,18.7-18.7S165.9,547.2,165.9,558
		L165.9,558z M147.2,535.7c-12.3,0-22.3,10.1-22.3,22.3s10.1,22.3,22.3,22.3c12.3,0,22.3-10.1,22.3-22.3S159.4,535.7,147.2,535.7
		L147.2,535.7z"/>
	<path fill="#E238F4" d="M153.6,560.9c-0.7,2.9-2.9,4.3-5.8,4.3c-4.3,0-7.2-3.6-7.2-7.9s2.2-7.9,7.2-7.9c2.9,0,5,1.4,5.8,4.3h2.9
		c-0.7-5-4.3-7.9-9.4-7.9c-6.5,0-10.8,5-10.8,10.8c0,6.5,4.3,11.5,10.8,11.5c4.3,0,7.9-2.9,8.6-7.9h-2.2V560.9z"/>
	<path fill="#E238F4" d="M557.2,610.6c0,10.1-8.6,18.7-18.7,18.7s-18.7-8.6-18.7-18.7s8.6-18.7,18.7-18.7
		C549.3,592.6,557.2,600.5,557.2,610.6L557.2,610.6z M538.5,588.3c-12.3,0-22.3,10.1-22.3,22.3s10.1,22.3,22.3,22.3
		s22.3-10.1,22.3-22.3S550.7,588.3,538.5,588.3L538.5,588.3z"/>
	<path fill="#E238F4" d="M534.9,612.1h3.6l5.8,9.4h3.6l-5.8-9.4c2.9-0.7,5.8-2.2,5.8-5.8c0-4.3-2.2-5.8-7.2-5.8h-7.9v20.9h2.9
		L534.9,612.1L534.9,612.1z M534.9,609.9v-6.5h4.3c2.2,0,4.3,0.7,4.3,2.9c0,3.6-2.2,3.6-5,3.6H534.9L534.9,609.9z"/>
</g>
</svg>
